<svg width="21" height="19" viewBox="0 0 21 19" fill="none" xmlns="http://www.w3.org/2000/svg">
<path d="M14.3711 8.42981V4.78424C14.3711 2.77085 12.7468 1.13867 10.7432 1.13867C8.73958 1.13867 7.11528 2.77085 7.11528 4.78424V8.42981" stroke="#171717" stroke-width="2" stroke-linecap="round"/>
<path d="M19.2243 9.31668C19.0762 7.59782 19.0021 6.73844 18.4159 6.21687C17.8296 5.69531 16.9377 5.69531 15.1537 5.69531H6.33174C4.54784 5.69531 3.65583 5.69531 3.06957 6.21687C2.48341 6.73844 2.40927 7.59782 2.2611 9.31668L1.73642 15.4047C1.65013 16.4054 1.60703 16.9058 1.91043 17.2246C2.21382 17.5434 2.73309 17.5434 3.77174 17.5434H17.7138C18.7524 17.5434 19.2717 17.5434 19.5751 17.2246C19.8784 16.9058 19.8353 16.4054 19.7491 15.4047L19.2243 9.31668Z" stroke="#171717" stroke-width="2"/>
</svg>
