<svg width="92" height="38" viewBox="0 0 92 38" fill="none" xmlns="http://www.w3.org/2000/svg">
<path d="M25.7771 16.2854C25.6038 16.297 25.4323 16.2431 25.2947 16.1336C25.1572 16.0242 25.0629 15.8668 25.0296 15.6908C24.4538 12.8984 24.4538 10.0121 25.0296 7.2197C25.0747 7.03801 25.1806 6.87863 25.3286 6.7698C25.4765 6.66097 25.657 6.60971 25.8381 6.62508C26.3915 6.62508 26.2811 6.03613 26.2811 6.03613H20.7851C20.5136 6.03613 20.4197 6.62508 20.9676 6.62508C21.1487 6.60971 21.3292 6.66097 21.4771 6.7698C21.6251 6.87863 21.731 7.03801 21.7761 7.2197C22.3519 10.0121 22.3519 12.8984 21.7761 15.6908C21.7381 15.8689 21.637 16.0259 21.4925 16.1309C21.3481 16.2359 21.1709 16.2813 20.9956 16.2582C20.4422 16.2582 20.4422 16.8755 20.8907 16.8755H25.837C26.325 16.8738 26.3311 16.2854 25.7771 16.2854Z" fill="#243029"/>
<path d="M39.3006 16.6416C39.1245 16.6532 38.9502 16.5993 38.8103 16.4898C38.6705 16.3804 38.5747 16.223 38.5408 16.047C38.2442 14.6554 38.097 13.2353 38.1017 11.8115C38.0667 10.5554 38.1705 9.29929 38.4112 8.06672C38.4629 7.64476 38.5565 7.22921 38.6906 6.82641C38.7805 6.58073 38.7582 6.39746 38.2855 6.39746H34.2224C33.952 6.39746 33.8453 6.98641 34.4078 6.98641C34.5919 6.97104 34.7754 7.0223 34.9258 7.13113C35.0762 7.23996 35.1838 7.39934 35.2296 7.58103C35.8149 10.3734 35.8149 13.2597 35.2296 16.0521C35.191 16.2302 35.0882 16.3872 34.9414 16.4922C34.7946 16.5972 34.6144 16.6426 34.4363 16.6195C33.8737 16.6195 33.8737 17.2368 34.3296 17.2368H39.3576C39.852 17.23 39.8576 16.6416 39.3006 16.6416Z" fill="#243029"/>
<path d="M91.2702 34.9608C91.0897 34.9765 90.9095 34.9275 90.761 34.8221C90.6125 34.7168 90.5051 34.5619 90.4577 34.3845C90.1406 32.6958 90.0235 30.5099 90.0235 26.9841C90.0291 24.5548 90.174 22.1278 90.4577 19.7156C90.519 19.3484 90.5466 19.2189 90.5742 19.0153C90.6018 18.8118 90.4853 18.5635 90.0345 18.5635H86.3729C85.889 18.5635 85.8835 19.1336 86.4342 19.1336C86.6068 19.1217 86.7778 19.1735 86.9159 19.2794C87.0539 19.3853 87.1496 19.5382 87.1854 19.71C87.4526 20.9537 87.5962 22.2214 87.614 23.4942V24.9064C87.4969 25.0926 87.3577 25.1946 87.2081 25.087C86.5823 24.5312 85.7683 24.2437 84.9378 24.2853C83.4133 24.2853 80.8867 26.4426 80.8867 30.1422C80.8867 33.8418 82.6394 35.818 84.1976 35.818C86.4182 35.818 86.9186 33.8132 87.2749 34.1462C87.2283 34.4733 87.15 34.795 87.0412 35.1065C86.9578 35.3437 86.9744 35.5242 87.4417 35.5242H91.4591C91.7253 35.5366 91.8253 34.9608 91.2702 34.9608ZM87.0633 32.7469C86.8308 33.0054 86.532 33.1931 86.2002 33.2888C85.8685 33.3846 85.517 33.3847 85.1853 33.289C84.3396 33.0799 83.6663 32.1027 83.3713 31.3268C83.1706 30.7044 83.06 30.0557 83.0432 29.401C82.9542 28.0286 83.3713 24.8997 85.3134 24.8997C86.4596 24.8997 87.2721 26.063 87.6174 27.4074V30.2593C87.6118 30.7639 87.6008 31.1743 87.5842 31.5303C87.5048 31.9697 87.3278 32.385 87.0666 32.7446L87.0633 32.7469Z" fill="#243029"/>
<path d="M35.4954 6.50178L34.5622 6.3986C33.9884 6.3986 31.6498 6.4043 31.3573 6.4043C31.0648 6.4043 31.0871 6.66823 31.239 6.76628C31.5808 6.95278 31.8591 7.24103 32.0368 7.59278C32.2145 7.94453 32.2834 8.34316 32.2341 8.73579C31.9317 9.7553 31.5199 10.7376 31.0062 11.6647C30.8946 11.883 30.6914 11.9343 30.5452 11.7508C29.9405 10.4634 29.5626 9.07736 29.4289 7.65612C29.4177 7.42069 29.3731 7.15049 29.708 7.02451C30.0428 6.89853 30.0339 6.39746 29.7135 6.39746H25.5246C24.9174 6.39746 25.2378 6.92589 25.71 7.586C26.632 8.92388 27.4142 10.3568 28.0436 11.8613C28.6119 13.2776 29.0965 14.7273 29.4947 16.2028C29.5506 16.404 29.8492 17.6097 29.8938 17.7419C29.9614 17.9375 30.1863 17.9603 30.2538 17.7647C30.6814 15.9674 31.086 15.1864 32.1487 14.3074C32.6661 13.8708 32.2274 13.5954 31.9746 13.4523C31.7429 13.3074 31.5312 13.1316 31.345 12.9296C31.3227 12.8523 31.3161 12.7711 31.3257 12.6911C31.3353 12.6111 31.3609 12.534 31.4008 12.4645C31.5978 12.0455 32.7337 9.18555 33.0875 8.62235C33.303 8.21406 33.6009 7.85708 33.9614 7.57497C34.3219 7.29287 34.7369 7.09204 35.1789 6.98575C35.7092 6.84666 35.4954 6.50178 35.4954 6.50178Z" fill="#243029"/>
<path d="M48.3044 9.11429C47.9341 7.50681 44.5471 4.71642 41.0401 7.75095C37.4029 11.0511 39.9347 17.2368 43.8444 17.2368C47.7541 17.2368 48.1952 14.0563 47.9936 13.0735C47.9936 13.0735 47.8519 12.4031 47.3947 13.0735C44.8136 15.9135 42.692 13.6813 42.4342 12.954C42.9785 12.6247 48.0557 9.82979 48.0557 9.82979C48.1435 9.73581 48.2111 9.62338 48.254 9.5C48.2969 9.37663 48.314 9.24514 48.3044 9.11429ZM45.2931 10.4038C44.3332 11.0477 43.3388 11.6337 42.3147 12.159C42.1461 12.2328 41.9715 12.4088 41.7428 11.7953L41.6012 11.466C41.5086 11.1894 41.4269 10.9092 41.3563 10.6254C40.6596 7.79662 43.2515 6.95031 44.4763 7.47298C45.7012 7.99565 45.6801 10.0514 45.2931 10.4038Z" fill="#243029"/>
<path d="M79.5517 9.11429C79.1728 7.50681 75.7078 4.71642 72.1199 7.75095C68.3988 11.0511 70.9891 17.2368 74.9834 17.2368C78.9776 17.2368 79.4344 14.0563 79.2282 13.0735C79.2282 13.0735 79.0833 12.4031 78.6154 13.0735C75.9749 15.9135 73.8044 13.6813 73.5406 12.954C74.0936 12.6247 79.2917 9.82979 79.2917 9.82979C79.2917 9.82979 79.6407 9.46556 79.5517 9.11429ZM76.4764 10.4038C75.4945 11.0477 74.4771 11.6337 73.4294 12.159C73.2569 12.2328 73.0783 12.4088 72.8444 11.7953L72.6995 11.466C72.6047 11.1894 72.5212 10.9092 72.449 10.6254C71.7362 7.79662 74.3878 6.95031 75.6409 7.47298C76.894 7.99565 76.8718 10.0519 76.4764 10.4049V10.4038Z" fill="#243029"/>
<path d="M30.6933 27.418C30.3044 25.7131 26.7535 22.753 23.0746 25.9717C19.2622 29.4776 21.9134 36.0391 26.0143 36.0391C30.1152 36.0391 30.5769 32.6629 30.3656 31.6216C30.3656 31.6216 30.2156 30.9127 29.7379 31.6216C27.0315 34.6381 24.8029 32.269 24.5309 31.4976C25.098 31.1484 30.4213 28.1827 30.4213 28.1827C30.518 28.0823 30.5922 27.9621 30.6391 27.8302C30.686 27.6983 30.7045 27.5577 30.6933 27.418ZM27.5368 28.7883C26.5318 29.4692 25.4889 30.091 24.4134 30.6507C24.2358 30.7295 24.0521 30.9211 23.8132 30.2681L23.6687 29.9189C23.5712 29.6248 23.4861 29.3268 23.4133 29.0251C22.6796 26.0259 25.4025 25.1254 26.6923 25.6768C27.982 26.2281 27.9423 28.414 27.5368 28.7883Z" fill="#243029"/>
<path d="M69.6679 16.8394C69.6283 16.7132 69.4982 16.6046 69.252 16.6046C69.0751 16.6162 68.9 16.5627 68.7594 16.4541C68.6188 16.3455 68.5224 16.1891 68.4882 16.0143C68.465 15.8074 68.4884 15.5979 68.5566 15.4013C68.8701 14.5136 69.3318 13.6827 69.6226 12.7854C70.0103 11.7157 70.1647 10.5747 70.0753 9.43986C69.9725 8.57432 69.5722 7.77201 68.9436 7.17142C68.4199 6.62699 67.7242 6.28245 66.9755 6.19676C66.2269 6.11107 65.4719 6.28957 64.8397 6.7017C64.6173 6.845 64.1845 7.22317 63.905 7.2135C63.6656 7.20782 63.6373 7.0702 63.6373 6.92121C63.6543 6.87514 63.6656 6.82965 63.6832 6.7779C63.7743 6.53166 63.7516 6.34798 63.273 6.34798H59.1634C58.8895 6.34798 58.7814 6.93827 59.3512 6.93827C59.5376 6.92286 59.7235 6.97424 59.8758 7.08332C60.0281 7.19239 60.1372 7.35213 60.1836 7.53424C60.7764 10.333 60.7764 13.2258 60.1836 16.0245C60.1254 16.2048 60.0093 16.3606 59.8536 16.4674C59.6978 16.5742 59.5112 16.6261 59.3229 16.6148C59.0666 16.6205 58.8041 16.5977 58.5478 16.5864C58.4336 16.5913 58.3197 16.5731 58.2127 16.5327C58.1058 16.4924 58.008 16.4307 57.9253 16.3515C57.794 16.2038 57.7037 16.024 57.6634 15.83C57.6269 15.6067 57.6485 15.3777 57.7262 15.1653C58.0396 14.277 58.4787 13.7043 58.7696 12.799C59.1572 11.7293 59.3116 10.5884 59.2222 9.45351C59.1194 8.58797 58.7192 7.78566 58.0906 7.18507C57.5668 6.64064 56.8711 6.29609 56.1224 6.21041C55.3738 6.12472 54.6188 6.30321 53.9866 6.71535C53.7643 6.85865 53.3314 7.23682 53.0519 7.22715C52.8182 7.22147 52.7837 7.08385 52.7837 6.93485C52.8007 6.88879 52.812 6.8433 52.8295 6.79155C52.9206 6.54531 52.898 6.36163 52.4193 6.36163H48.3097C48.0359 6.36163 47.9278 6.95191 48.4976 6.95191C48.684 6.93651 48.8698 6.98789 49.0222 7.09697C49.1745 7.20604 49.2835 7.36577 49.3299 7.54788C49.9228 10.3466 49.9228 13.2394 49.3299 16.0382C49.2908 16.2167 49.1867 16.374 49.038 16.4793C48.8893 16.5845 48.7068 16.63 48.5264 16.6068C47.9606 16.6068 47.9567 17.2256 48.4184 17.2256H53.5108C54.0065 17.2256 54.0127 16.6353 53.448 16.6353C53.2696 16.6469 53.093 16.5928 52.9514 16.4831C52.8098 16.3735 52.7128 16.2157 52.6785 16.0393C52.378 14.6446 52.2289 13.2212 52.2337 11.7942C52.245 10.7632 52.1313 9.47967 52.7469 8.59197C52.8946 8.36153 53.0913 8.16694 53.3229 8.02227C53.5546 7.8776 53.8153 7.78646 54.0862 7.75545C54.4847 7.72517 54.8803 7.8434 55.1975 8.08756C56.3603 9.00994 56.3603 11.5877 55.2886 14.8474C54.6045 16.7809 55.163 17.1044 55.2201 17.1676C55.2773 17.2307 55.4538 17.2364 55.5851 17.2364L59.4785 17.2307H64.369C64.8646 17.2307 64.8708 16.6404 64.3061 16.6404C64.1277 16.652 63.9512 16.5979 63.8096 16.4883C63.6679 16.3786 63.5709 16.2208 63.5366 16.0444C63.2361 14.6497 63.087 13.2263 63.0919 11.7993C63.1032 10.7683 62.9895 9.48479 63.6108 8.59709C63.7584 8.36664 63.9551 8.17205 64.1868 8.02738C64.4184 7.88271 64.6791 7.79158 64.9501 7.76057C65.3475 7.73105 65.7422 7.84699 66.0613 8.08699C67.2241 9.00937 67.2241 11.5872 66.1524 14.8468C65.4683 16.7803 66.0268 17.1039 66.084 17.167C66.1411 17.2301 66.3177 17.2358 66.4489 17.2358L69.3618 17.2301L69.3674 17.2244C69.6181 17.1727 69.7267 16.997 69.6809 16.8463L69.6679 16.8394Z" fill="#243029"/>
<path d="M38.4416 29.4421C37.4139 28.8597 36.2247 28.7257 35.1334 28.2889C34.2673 27.9416 33.078 27.3764 33.1875 26.3182C33.3319 24.896 34.8388 24.5604 35.8813 24.6721C36.118 24.6999 36.9669 24.8849 36.6838 25.3551C36.4615 25.525 36.2875 25.7469 36.178 26C36.0685 26.2531 36.0273 26.529 36.058 26.8018C36.0888 27.0746 36.1906 27.3353 36.3538 27.5595C36.5171 27.7837 36.7365 27.9639 36.9913 28.0832C37.2462 28.2026 37.5282 28.2571 37.8108 28.2417C38.0933 28.2263 38.3672 28.1415 38.6067 27.9953C38.8462 27.849 39.0434 27.6461 39.1797 27.4056C39.3161 27.1651 39.3871 26.895 39.3862 26.6205V26.5927C39.3911 26.2289 39.2643 25.875 39.028 25.5924L39.0222 25.5868C38.9748 25.5305 38.9226 25.4781 38.8663 25.4301C37.8387 24.4059 36.2797 23.8457 34.2295 24.1986C32.0698 24.5681 30.8341 26.3427 30.9843 27.4569C31.1345 28.5712 31.3425 29.7972 36.0882 31.4584C38.1613 32.1808 38.4554 33.7092 37.5314 34.5433C36.9866 34.9722 36.298 35.1914 35.597 35.1591C34.68 35.1369 33.5761 34.9368 33.6976 34.4033C33.9449 34.2748 34.1514 34.0832 34.2948 33.8494C34.4382 33.6156 34.5131 33.3482 34.5115 33.0762C34.4913 32.6107 34.2924 32.1694 33.9538 31.8389C33.6151 31.5084 33.1613 31.3126 32.6814 31.29C32.2141 31.3032 31.7699 31.4902 31.441 31.8123C31.112 32.1343 30.9234 32.5668 30.9144 33.02C30.9065 33.4056 31.0535 33.779 31.3242 34.0615H31.3127C32.099 34.8669 33.1179 35.423 34.2358 35.6571C36.1702 36.1439 38.5259 35.5115 39.6579 33.8653C39.983 33.3969 40.1577 32.8455 40.1599 32.2809C40.1549 31.7033 39.9935 31.1371 39.6919 30.6389C39.3904 30.1407 38.9592 29.728 38.4416 29.4421Z" fill="#243029"/>
<path d="M46.9407 30.1905C46.5455 29.4875 46.167 29.9959 46.4731 30.5509C46.6517 30.9828 46.7535 31.444 46.7738 31.9127C46.8572 32.6901 46.8069 33.6962 46.2283 34.2795C46.0364 34.4634 45.7889 34.5743 45.5271 34.5939C44.6528 34.5939 44.2301 33.8738 44.2301 32.6504C44.2301 31.9303 44.2301 28.2715 44.2356 25.2935C44.4143 25.153 44.6339 25.0784 44.859 25.0819C45.149 25.0912 45.4311 25.1812 45.6752 25.3423C45.9193 25.5034 46.1162 25.7296 46.2449 25.9966L46.6682 24.5559H44.6611C44.5091 24.5597 44.3601 24.5114 44.2378 24.4185V21.2919C44.2378 21.2976 44.2323 21.2919 44.2323 21.2919C44.2268 20.9373 43.8924 20.8176 43.7902 21.4122C43.4619 23.2473 40.3833 24.6364 40.1213 24.7278C39.8594 24.8192 39.871 25.0995 40.2385 25.1449C40.6392 25.1562 41.0956 24.8305 41.2686 25.6766C41.2741 27.9287 41.2575 32.3531 41.2575 32.7934C41.2575 33.3648 41.4355 35.8173 44.3196 35.8173C47.3634 35.8207 48.0205 32.2594 46.9407 30.1905Z" fill="#243029"/>
<path d="M61.4789 24.5361C61.2763 24.5361 60.5062 24.5417 60.5062 24.5417C59.933 24.5417 57.594 24.5473 57.3016 24.5473C57.0091 24.5473 57.0315 24.8061 57.1833 24.9022C57.5251 25.0851 57.8033 25.3677 57.981 25.7126C58.1588 26.0575 58.2276 26.4484 58.1783 26.8334C57.8759 27.8331 57.4642 28.7962 56.9505 29.7052C56.8389 29.9193 56.6358 29.9696 56.4895 29.7896C55.8849 28.5274 55.5071 27.1683 55.3733 25.7748C55.3622 25.5439 55.3175 25.279 55.6524 25.1554C55.9873 25.0319 55.9783 24.5406 55.658 24.5406H51.4639C50.8567 24.5406 51.4806 25.0587 51.9533 25.706C51.9985 25.7736 52.2061 26.1342 52.5042 26.7194C52.4985 26.7564 52.4948 26.7937 52.493 26.8312C52.1906 27.8308 51.7788 28.7939 51.2652 29.703C51.1536 29.9171 50.9504 29.9674 50.8042 29.7874C50.1996 28.5251 49.8218 27.1661 49.688 25.7725C49.6768 25.5417 49.6322 25.2767 49.967 25.1532C50.3019 25.0297 50.293 24.5384 49.9726 24.5384H45.7785C45.1713 24.5384 45.4917 25.0565 45.9638 25.7038C46.8858 27.0156 47.6679 28.4206 48.2972 29.8958C48.8646 31.2848 49.3491 32.7063 49.7483 34.1528C49.8041 34.3501 50.1027 35.5322 50.1473 35.6619C50.2148 35.8536 50.4398 35.876 50.5073 35.6843C50.9348 33.9219 51.3394 33.1562 52.402 32.2943C52.9194 31.8661 52.4807 31.5962 52.2279 31.4559C51.9963 31.3137 51.7846 31.1414 51.5984 30.9433C51.576 30.8675 51.5695 30.7879 51.5791 30.7095C51.5887 30.631 51.6142 30.5554 51.6542 30.4872C51.8004 30.1831 52.4467 28.6008 52.9194 27.5539C53.2944 28.3259 53.6505 29.1068 53.9876 29.8964C54.5559 31.285 55.0404 32.7066 55.4386 34.1533C55.4945 34.3506 55.793 35.5328 55.8377 35.6625C55.9052 35.8542 56.1301 35.8766 56.1977 35.6848C56.6252 33.9225 57.0298 33.1567 58.0924 32.2948C58.6098 31.8667 58.1711 31.5967 57.9183 31.4564C57.6866 31.3143 57.4749 31.1419 57.2887 30.9439C57.2664 30.8681 57.2599 30.7885 57.2695 30.71C57.2791 30.6316 57.3046 30.5559 57.3445 30.4878C57.5416 30.0769 58.6773 27.2727 59.0311 26.721C59.2469 26.3162 59.545 25.9612 59.9063 25.6789C60.2675 25.3966 60.6839 25.1933 61.1285 25.0822C61.2936 25.0553 61.4543 25.006 61.6062 24.9358C61.8378 24.7558 61.7362 24.5361 61.4789 24.5361Z" fill="#243029"/>
<path d="M51.8764 25.6422C51.7206 25.4358 51.3377 25.0176 51.1294 25.0118C51.1033 25.0099 51.0778 25.0014 51.0544 24.9868C51.031 24.9721 51.0103 24.9517 50.9936 24.9266C50.9768 24.9016 50.9644 24.8726 50.957 24.8413C50.9496 24.81 50.9475 24.7772 50.9507 24.7448C50.9539 24.7125 50.9624 24.6813 50.9757 24.6532C50.989 24.6252 51.0068 24.6008 51.0279 24.5816C51.0491 24.5625 51.0732 24.5489 51.0987 24.5418C51.1242 24.5347 51.1506 24.5343 51.1763 24.5404C51.5071 24.5463 52.4902 24.5463 52.4902 24.5463L52.4334 25.5714" fill="#243029"/>
<path d="M64.4744 23.9814C64.3262 23.7639 63.836 23.92 63.5853 24.0484C62.6459 24.5083 61.8028 25.1362 61.0996 25.8995C60.4043 26.7121 59.9199 27.6769 59.6876 28.7119C59.4554 29.7469 59.4822 30.8215 59.7657 31.8442C60.8376 35.2016 64.6895 36.8689 67.4112 35.1063C69.173 33.9632 69.9371 31.8719 69.8743 29.8586C69.8562 29.2081 69.7489 28.563 69.5551 27.9405C69.0191 26.2283 67.2856 24.3772 65.2673 24.8406C64.5774 24.997 63.9505 25.3501 63.4659 25.8552C62.896 26.6358 63.6085 26.597 64.0319 26.5693C66.4491 26.5417 67.5555 28.9059 67.886 29.9599C68.2822 31.2204 68.5929 33.7075 66.8996 34.2705C65.4343 34.7554 64.003 33.4401 63.2276 32.3131C62.9512 31.8753 62.711 31.4166 62.5094 30.9414C61.2836 28.2256 62.1217 25.889 63.7925 24.7514C64.4518 24.3158 64.6114 24.2211 64.4744 23.9814Z" fill="#243029"/>
<path d="M75.1597 23.9814C75.0146 23.7639 74.535 23.92 74.2891 24.0484C73.3698 24.5083 72.5448 25.1362 71.8567 25.8995C71.1751 26.7114 70.7003 27.6763 70.473 28.7115C70.2457 29.7467 70.2725 30.8216 70.5513 31.8442C71.6003 35.2016 75.3696 36.8689 78.033 35.1063C79.7571 33.9632 80.5047 31.8719 80.4433 29.8586C80.4256 29.2081 80.3205 28.563 80.1309 27.9405C79.6064 26.2283 77.91 24.3772 75.9351 24.8406C75.26 24.997 74.6465 25.3501 74.1723 25.8552C73.6146 26.6358 74.3118 26.597 74.7261 26.5693C77.0915 26.5417 78.1742 28.9059 78.4977 29.9599C78.8853 31.2204 79.1894 33.7075 77.5323 34.2705C76.0985 34.7554 74.6978 33.4401 73.9391 32.3131C73.6686 31.8753 73.4335 31.4166 73.2363 30.9414C72.0367 28.2256 72.8569 25.889 74.4918 24.7514C75.1376 24.3158 75.2938 24.2211 75.1597 23.9814Z" fill="#243029"/>
<path d="M24.4898 19.4076H24.422C24.1977 19.4133 23.2416 19.4133 23.2416 19.4133H22.2872L20.2534 19.4189H19.6035C19.2704 19.4189 19.2984 19.7147 19.4678 19.8282C19.9256 20.073 20.3054 20.4431 20.5634 20.8958C20.8213 21.3485 20.9469 21.8654 20.9257 22.3868C20.9089 23.0348 19.8468 28.2893 19.2934 30.5409C19.2311 30.6718 19.1184 30.7057 19.0562 30.5352C18.768 29.6366 18.5196 28.5675 18.2201 27.4759C17.5646 25.099 16.8698 22.5911 16.548 21.1416L16.5311 21.0733C16.5031 20.9604 16.4857 20.8515 16.4633 20.755C16.4297 20.6194 16.4394 20.4766 16.4912 20.347C16.5429 20.2174 16.6341 20.1075 16.7515 20.033L16.7852 20.0161C16.9489 19.9252 17.2029 19.8852 17.2938 19.8169C17.531 19.6351 17.4295 19.4133 17.1693 19.4133H17.1014C16.8771 19.4189 15.921 19.4189 15.921 19.4189H14.9678L12.9339 19.4246H12.2824C11.9493 19.4246 11.9773 19.7203 12.1466 19.8338C12.7471 20.1797 13.2102 20.7242 13.4571 21.3747L13.4908 21.4876L13.8182 22.5962C13.8962 22.8742 13.9039 23.1674 13.8407 23.4491C13.3775 25.2175 12.4949 28.4247 12.0782 30.227C12.0272 30.3399 11.9313 30.3806 11.8691 30.2835C11.6095 29.4368 11.3835 28.4693 11.1121 27.4804C10.6635 25.8655 10.2081 24.1936 9.85207 22.835C9.71076 21.8568 10.2446 21.8399 10.5637 21.4701C10.844 21.1631 10.4734 21.0265 10.3489 21.0378C8.97057 21.0835 7.77281 19.2411 5.44571 18.6326C5.21394 18.5815 4.97692 18.5586 4.73972 18.5643C3.74427 18.5633 2.78909 18.96 2.08394 19.6672C1.37879 20.3745 0.981308 21.3345 0.978783 22.3366C0.948477 23.1987 1.22923 24.0428 1.76914 24.7127C2.30906 25.3827 3.07165 25.8333 3.91598 25.9812C4.42097 26.0558 4.93613 25.9551 5.37665 25.6956C5.81716 25.4362 6.15677 25.0334 6.33954 24.5537C6.33954 24.5537 6.50776 24.0361 6.25487 23.9678C6.01206 23.9396 5.98346 24.2179 5.91842 24.5024C5.75298 24.8836 5.45535 25.1913 5.0811 25.3679C4.70684 25.5444 4.28154 25.5779 3.88458 25.4619C3.24216 25.3354 2.6623 24.9909 2.24183 24.4859C1.82136 23.9808 1.58574 23.3459 1.5743 22.6871C1.56824 22.322 1.63368 21.9593 1.76688 21.6197C1.90008 21.28 2.09843 20.9701 2.35061 20.7077C2.60279 20.4452 2.90386 20.2353 3.23662 20.09C3.56939 19.9446 3.92734 19.8667 4.29003 19.8606C4.32629 19.86 4.36255 19.8601 4.39882 19.8609C4.7719 19.8769 5.13373 19.9943 5.44597 20.2005C5.7582 20.4067 6.00922 20.694 6.17244 21.0321C7.1044 23.8753 9.23412 31.694 9.89524 35.4256C10.0366 36.2102 10.0932 37.2319 10.1324 37.3877C10.1349 37.4368 10.1545 37.4835 10.1877 37.5196C10.221 37.5557 10.2658 37.5789 10.3143 37.585C10.3628 37.5911 10.4119 37.5798 10.453 37.5532C10.4941 37.5265 10.5245 37.4861 10.539 37.439C11.1491 35.4544 11.9117 34.4424 13.1745 33.5325C13.7913 33.0775 13.7352 33.1853 13.0332 32.5599C12.8353 32.3774 12.6674 32.1644 12.5358 31.9289C12.4368 31.7364 12.4088 31.5148 12.4567 31.3034C12.745 29.9104 13.6371 26.7432 14.1345 24.8213C14.1426 24.7842 14.1623 24.7506 14.1907 24.7256C14.2191 24.7005 14.2547 24.6853 14.2924 24.6821C14.33 24.679 14.3677 24.6881 14.3998 24.708C14.4319 24.728 14.4569 24.7578 14.471 24.7931L14.5046 24.906C15.5386 28.528 16.7526 33.2034 17.0639 35.4612C17.176 36.2514 17.1883 37.2353 17.2276 37.3944C17.2898 37.6202 17.5439 37.662 17.6341 37.4458C18.2442 35.4612 19.0068 34.4491 20.2697 33.5392C20.8865 33.0843 20.8304 33.1921 20.1283 32.5667C20.006 32.4559 19.8962 32.3319 19.8009 32.197C19.7403 32.1008 19.6992 31.9936 19.68 31.8814C19.6607 31.7692 19.6637 31.6543 19.6887 31.5433C20.1126 29.5644 21.0839 25.1007 21.3889 24.1112C21.7687 22.7747 22.4534 21.5459 23.3885 20.523C23.6022 20.322 23.8438 20.1533 24.1057 20.0223C24.2695 19.9314 24.5235 19.8914 24.6143 19.8231C24.8571 19.6295 24.7545 19.4076 24.4898 19.4076Z" fill="#243029"/>
<path d="M23.1749 1.65012H23.1072C22.8831 1.65574 21.9281 1.65574 21.9281 1.65574H20.9758L18.9442 1.66137H18.2949C17.9622 1.66137 17.9902 1.95598 18.1594 2.06337C18.6158 2.3055 18.9946 2.67219 19.2523 3.12114C19.51 3.5701 19.636 4.08302 19.6158 4.60076C19.599 5.17874 18.3515 9.35281 17.6861 11.8396C17.6662 11.8536 17.6419 11.8597 17.6178 11.8566C17.5938 11.8534 17.5717 11.8414 17.5561 11.8227C17.5505 11.8171 17.5505 11.8115 17.5449 11.8059C17.2856 10.9676 16.8901 10.0275 16.6195 9.04189C16.1714 7.44457 15.7166 5.78483 15.3609 4.43714C15.2197 3.46841 15.753 3.44592 16.0717 3.08327C16.3518 2.77741 15.9815 2.64135 15.8572 2.65259C14.4803 2.69814 13.2839 0.874231 10.9593 0.268136C10.7279 0.216275 10.4908 0.195291 10.254 0.205727C9.76222 0.202245 9.27454 0.296027 8.81884 0.481721C8.36314 0.667415 7.94834 0.941382 7.59813 1.28798C7.24791 1.63458 6.96914 2.04703 6.77773 2.50176C6.58632 2.9565 6.48602 3.44463 6.48256 3.93828V3.94181C6.4532 4.79851 6.73436 5.63683 7.2739 6.30131C7.81343 6.96579 8.57473 7.41133 9.41661 7.55533C9.91954 7.62969 10.4327 7.53075 10.8724 7.27465C11.3121 7.01855 11.6523 6.62042 11.8376 6.14523C11.8376 6.14523 12.0056 5.63528 11.753 5.56725C11.5104 5.53914 11.4819 5.81632 11.4169 6.09407C11.2503 6.47255 10.9526 6.77754 10.579 6.95248C10.2054 7.12741 9.78123 7.16042 9.38524 7.04538C8.74452 6.92065 8.16583 6.57907 7.7458 6.07766C7.32578 5.57625 7.08986 4.94538 7.07743 4.2904C7.07202 3.92754 7.13787 3.56717 7.27121 3.22986C7.40456 2.89254 7.60279 2.5849 7.85458 2.32448C8.10638 2.06406 8.40682 1.85597 8.73874 1.7121C9.07065 1.56822 9.42755 1.49138 9.78906 1.48595C9.82566 1.4854 9.86227 1.48558 9.89889 1.48651C10.2709 1.50245 10.6317 1.61868 10.9435 1.82298C11.2553 2.02728 11.5064 2.31211 11.6706 2.64754C12.6128 5.46829 14.9038 13.2053 15.5642 16.9037C15.7054 17.6852 15.8124 18.212 15.8521 18.3655C15.8546 18.4145 15.8741 18.461 15.9073 18.497C15.9406 18.5329 15.9853 18.556 16.0338 18.5621C16.0823 18.5682 16.1313 18.5569 16.1724 18.5304C16.2134 18.5038 16.2438 18.4635 16.2582 18.4167C16.8677 16.4455 17.5785 15.9299 18.8428 15.0241C19.4589 14.5743 19.4029 14.6868 18.7016 14.0554C18.5056 13.8741 18.3381 13.6641 18.2048 13.4324C18.1535 13.3356 18.121 13.2299 18.109 13.1209C18.6338 10.9687 19.7961 7.18481 20.0729 6.29029C20.4538 4.96298 21.1377 3.74307 22.0703 2.72737C22.2825 2.52726 22.5242 2.36114 22.7868 2.23485C22.9503 2.14433 23.2041 2.10441 23.2948 2.03638C23.5357 1.87052 23.4337 1.65012 23.1749 1.65012Z" fill="#243029"/>
</svg>
