<svg width="19" height="19" viewBox="0 0 19 19" fill="none" xmlns="http://www.w3.org/2000/svg">
<path d="M9.83494 8.42981C11.8386 8.42981 13.4628 6.79763 13.4628 4.78424C13.4628 2.77085 11.8386 1.13867 9.83494 1.13867C7.8313 1.13867 6.20703 2.77085 6.20703 4.78424C6.20703 6.79763 7.8313 8.42981 9.83494 8.42981Z" stroke="#171717" stroke-width="2" stroke-linecap="round"/>
<path d="M2.00106 14.8292C2.70183 12.3363 5.35934 11.1631 8.02164 11.1631H11.6477C14.31 11.1631 16.9675 12.3363 17.6683 14.8292C17.8119 15.3404 17.9267 15.8936 17.9918 16.4811C18.0564 17.0651 17.5603 17.5428 16.9552 17.5428H2.71407C2.10906 17.5428 1.61292 17.0651 1.67755 16.4811C1.7426 15.8936 1.85736 15.3404 2.00106 14.8292Z" stroke="#171717" stroke-width="2" stroke-linecap="round"/>
</svg>
